<svg width="164" height="160" xmlns="http://www.w3.org/2000/svg"><g id="1st-Loan---Bank-Fetching" stroke="none" stroke-width="1" fill="none" fill-rule="evenodd"><g id="1st-Form-Sent" transform="translate(-16 -360)"><g id="Group-Copy-2" transform="translate(16 360)"><g id="img_i_banking" transform="translate(-.002 -.002)"><path d="M72.002 36.002c50.81 0 92 41.19 92 92 0 11.254-2.02 22.035-5.718 32.002l-150.282-.002a8 8 0 01-8-8L0 70.728c16.856-21.162 42.845-34.726 72.002-34.726z" id="Combined-Shape" fill="#FFF" opacity=".4"/><path d="M81.355 0c6.797 12.834 10.647 27.469 10.647 43.002 0 50.81-41.19 92-92 92v-127a8 8 0 018-8z" id="Combined-Shape" fill="#FFF" opacity=".2"/><g id="Group-2" transform="matrix(-1 0 0 1 148.002 16.002)"><path d="M76.938 116.679s-29.253 3.285-34.237-18.57c-3.323-14.572 14.072-21.224 52.185-19.957l4.48 28.75-22.428 9.777z" id="Path-4" fill="#FBD2A5"/><path d="M41.238 98.442c2.137 9.367 8.556 15.146 17.783 17.974 5.512 1.69 11.26 2.14 16.318 1.882l.603-.034c.412-.026.737-.053.966-.074l.422-.046 23.697-10.33-4.85-31.12-1.242-.041c-39.019-1.297-57.362 5.718-53.697 21.789zm52.357-18.83l4.111 26.377-21.153 9.22-.454.037c-.105.008-.22.016-.345.023-4.871.306-10.522-.087-15.854-1.721-8.28-2.538-13.865-7.566-15.737-15.773-2.92-12.81 12.817-19.106 48.465-18.189l.967.026z" id="Path-4" fill="#383838" fill-rule="nonzero"/><rect id="Rectangle" fill="#FBD2A5" transform="scale(-1 1) rotate(-40 0 139.172)" x="17" y="48" width="28" height="12" rx="6"/><path d="M39 46.5H23a7.5 7.5 0 000 15h16a7.5 7.5 0 000-15zm-16 3h16a4.5 4.5 0 110 9H23a4.5 4.5 0 110-9z" id="Rectangle" fill="#383838" fill-rule="nonzero" transform="scale(-1 1) rotate(-40 0 139.172)"/><g id="Group" transform="translate(22.173 12)"><path d="M9.717 5.74l44.717-4.438a9 9 0 019.707 7.156l14.206 69.587a9 9 0 01-6.603 10.523l-44.416 11.28c-5.353 1.358-10.795-1.88-12.154-7.232a10 10 0 01-.157-.732L1.741 16.252A9 9 0 019.717 5.74z" id="Rectangle" fill="#383838"/><path d="M16.984 10.113h1.723v.536a3 3 0 003.34 2.98l28.235-3.214a3 3 0 002.661-2.98v-1.22h1.941a6 6 0 015.883 4.818l13.032 64.836a6 6 0 01-4.71 7.067L29.687 90.79a6 6 0 01-7.09-4.892l-11.53-68.794a6 6 0 015.918-6.991z" id="Rectangle" fill="#FFF"/><ellipse id="Oval" fill="#48A800" transform="rotate(-10 46.827 60.5)" cx="46.827" cy="60.5" rx="11" ry="12.5"/><path d="M18.273 25.23v-9h-2v9h2zm3.397 1.412v-5.54c.305-.503.762-.754 1.372-.754.464 0 .797.1.996.3.2.202.3.525.3.97v5.024h2.166v-5.075c-.01-.973-.225-1.703-.644-2.192-.42-.489-1.06-.733-1.919-.733-.974 0-1.751.35-2.33 1.052l-.068-.907h-2.039v7.855h2.166zm8.037.37c.28 0 .552-.057.817-.171V25.4c-.116.03-.248.046-.397.046-.202 0-.34-.057-.41-.171-.072-.114-.108-.303-.108-.566v-3.553h.863v-1.394h-.863v-1.75h-1.348v1.75h-.737v1.394h.737v3.836c.018 1.346.5 2.02 1.446 2.02zm5.664-.63c.641 0 1.226-.123 1.753-.367a3.093 3.093 0 001.255-1.024l-1.012-1.133c-.447.575-1.067.862-1.86.862-.514 0-.938-.152-1.273-.456-.335-.304-.536-.708-.602-1.212h4.91v-.841c0-1.222-.302-2.166-.908-2.831-.606-.666-1.436-.998-2.491-.998-.704 0-1.33.165-1.879.495-.548.33-.973.801-1.272 1.412-.3.61-.45 1.304-.45 2.078v.2c0 1.155.356 2.08 1.067 2.774.71.694 1.63 1.04 2.762 1.04zm.018-4.94h-2c.05-.321.163-.568.34-.74.178-.173.41-.26.695-.26.305 0 .54.078.706.235.166.156.252.377.259.663v.102zm5.642 5.307v-5.14c.167-.537.518-.805 1.054-.805.147 0 .317.019.51.058l.02-2.019a1.046 1.046 0 00-.442-.094c-.503 0-.897.36-1.181 1.082l-.04-.937h-1.337v7.855h1.416zm4.717-.627v-5.54c.304-.502.762-.754 1.371-.754.465 0 .797.1.997.301.2.201.3.524.3.97v5.023h2.166v-5.074c-.01-.973-.225-1.704-.645-2.193-.42-.489-1.06-.733-1.918-.733-.975 0-1.752.35-2.331 1.053l-.068-.908h-2.038v7.855h2.166zm8.728.263c.641 0 1.226-.123 1.753-.367a3.093 3.093 0 001.255-1.024l-1.012-1.133c-.447.575-1.067.862-1.86.862-.514 0-.938-.152-1.273-.456-.335-.304-.536-.708-.603-1.212h4.912v-.841c0-1.222-.303-2.166-.909-2.831-.606-.666-1.436-.998-2.491-.998-.704 0-1.33.165-1.879.495a3.29 3.29 0 00-1.272 1.412c-.3.61-.45 1.304-.45 2.079v.2c0 1.154.356 2.079 1.067 2.773.71.694 1.63 1.04 2.762 1.04zm1.012-5.044h-2c.05-.322.164-.569.341-.741.178-.173.409-.26.694-.26.305 0 .54.079.707.235.165.156.252.377.258.663v.103zm5.258 4.42c.28 0 .552-.058.817-.172v-1.44a1.58 1.58 0 01-.397.046c-.202 0-.339-.057-.41-.172-.072-.114-.108-.302-.108-.565v-3.553h.863V18.51h-.863v-1.75H59.3v1.75h-.737v1.395h.737v3.836c.019 1.346.5 2.02 1.446 2.02zM18.506 40.2c1.069-.009 1.893-.236 2.47-.68.579-.446.868-1.1.868-1.966 0-.507-.14-.936-.418-1.286-.278-.35-.658-.583-1.142-.699.423-.156.753-.402.99-.738a1.97 1.97 0 00.356-1.165c0-.808-.295-1.421-.886-1.84-.591-.418-1.458-.627-2.601-.627h-3.3v9h3.662zm-.926-6.04v-2h.935c.368 0 .638.08.808.238.171.158.257.417.257.776 0 .643-.338.972-1.012.987h-.988zm.418 3.979v-2h1.14c.573.01.86.354.86 1.033 0 .302-.083.538-.247.71-.165.171-.394.257-.687.257h-1.066zm7.636 2.216c.815 0 1.477-.278 1.987-.834.043.275.114.506.21.691h2.126v-.121c-.204-.376-.308-.93-.313-1.661v-3.344c0-.865-.285-1.537-.855-2.015-.57-.477-1.34-.716-2.31-.716-.64 0-1.218.108-1.732.324-.515.217-.912.515-1.194.895-.281.38-.422.794-.422 1.24h2.103c0-.29.1-.517.302-.684.201-.166.48-.25.833-.25.403 0 .698.108.884.322.187.213.28.499.28.855v.442h-.967c-1.17.005-2.063.226-2.682.663-.618.438-.927 1.065-.927 1.883 0 .665.253 1.217.76 1.654.507.437 1.146.656 1.917.656zm-.677-1.852c-.259 0-.463-.04-.612-.12-.149-.08-.223-.182-.223-.306l.005-.058c.055-.344.508-.516 1.36-.516h.635v.64c-.102.11-.26.197-.471.262a2.346 2.346 0 01-.694.098zm7.232 2.115v-5.54c.304-.503.762-.754 1.371-.754.465 0 .797.1.997.3.2.202.3.525.3.97v5.024h2.166v-5.075c-.01-.973-.225-1.703-.645-2.192-.42-.489-1.059-.733-1.918-.733-.975 0-1.752.35-2.331 1.052l-.068-.907h-2.038v7.855h2.166zm7.702-.831v-2.149l.726-.677 1.94 2.826h2.317l-2.966-4.108 2.73-2.936h-2.423l-1.933 2.116-.39.468v-5.54h-2.018v10h2.017zm6.64-7.559c.3 0 .542-.093.725-.28a.994.994 0 00.275-.723c0-.29-.09-.528-.272-.716-.181-.187-.424-.28-.728-.28-.309 0-.553.093-.732.28a.994.994 0 00-.268.716c0 .294.091.535.274.722.183.188.425.281.726.281zm.473 7.028v-7h-1v7h1zm4.185.37v-5.539c.305-.503.762-.755 1.372-.755.464 0 .797.1.996.301.2.201.3.524.3.97v5.023h2.166v-5.074c-.01-.973-.225-1.704-.644-2.193-.42-.488-1.06-.733-1.919-.733-.974 0-1.751.351-2.33 1.053l-.068-.908h-2.039v7.855h2.166zm8.429 3.252c.74 0 1.387-.12 1.94-.36.551-.24.98-.589 1.284-1.047.304-.458.456-.997.456-1.617V33.01h-1.854l-.085.667c-.467-.532-1.12-.798-1.96-.798-.949 0-1.703.332-2.262.995-.559.663-.839 1.538-.839 2.624v.079c0 1.1.285 1.982.853 2.647.569.665 1.313.998 2.233.998.77 0 1.39-.247 1.862-.74v.38c0 .493-.151.874-.453 1.142-.302.268-.724.402-1.267.402a2.482 2.482 0 01-1.854-.791l-.906 1.151c.273.328.677.595 1.21.802.533.207 1.08.311 1.642.311zm.599-5.044a.934.934 0 01-.79-.384c-.192-.255-.288-.608-.288-1.059 0-.517.097-.906.29-1.167a.94.94 0 01.798-.39c.42 0 .723.152.912.455v2.09c-.185.303-.493.455-.922.455z" id="InternetBanking" fill="#25282B" fill-rule="nonzero" transform="scale(-1 1) rotate(8 0 -529.187)"/><path d="M38.73 54.969a1.5 1.5 0 012.01.002l.11.109 7.561 8.4 2.695-4.543a1.5 1.5 0 011.927-.593l.128.068a1.5 1.5 0 01.593 1.927l-.068.128-3.734 6.298a1.5 1.5 0 01-2.305.34l-.1-.101-8.927-9.917a1.5 1.5 0 01.11-2.118z" id="Path-5" fill="#FFF" fill-rule="nonzero"/></g><path d="M51.038 95.108a5.718 5.718 0 01-4.521 6.443l-7.54 1.528a5.65 5.65 0 01-6.716-4.751 6 6 0 015.107-6.777l7.501-1.054a5.467 5.467 0 016.169 4.611zm-.586-13.282a7.087 7.087 0 01-4.663 6.941 44.46 44.46 0 01-5.207 1.527l-.783.173a41.857 41.857 0 00-6.186 1.825 4.82 4.82 0 01-6.429-3.503 7.46 7.46 0 014.825-8.59 41.292 41.292 0 015.106-1.43c2.652-.563 5.515-.941 8.59-1.133a4.478 4.478 0 014.747 4.19zm-6.218-16.783a5.072 5.072 0 015.134 5.01v.062a6.222 6.222 0 01-4.776 6.052l-3.823.902c-.91.213-1.86.434-2.852.663-3.012.695-5.939 1.808-8.781 3.339a4.258 4.258 0 01-6.169-2.792 8.426 8.426 0 014.397-9.408c2.452-1.245 4.933-2.157 7.44-2.736 2.98-.688 6.123-1.052 9.43-1.092z" id="Shape" fill="#FBD2A5"/><path d="M45.148 63.411a6.574 6.574 0 016.645 6.27l.006.232v.07a7.722 7.722 0 01-3.243 6.292 5.976 5.976 0 014.266 5.728 8.588 8.588 0 01-4.112 7.329 6.964 6.964 0 014.584 5.551 7.218 7.218 0 01-5.469 8.081l-.238.053-7.54 1.527a7.15 7.15 0 01-8.499-6.012 7.466 7.466 0 01.791-4.54A6.32 6.32 0 0126.58 89a8.94 8.94 0 01.86-6.083 5.748 5.748 0 01-5.002-4.43 9.926 9.926 0 015.18-11.084c2.559-1.3 5.153-2.253 7.781-2.86 3.087-.713 6.337-1.09 9.75-1.13zm5.178 31.913a3.967 3.967 0 00-4.274-3.37l-.202.024-7.501 1.054a4.5 4.5 0 00-3.788 5.329 4.15 4.15 0 004.687 3.279l.204-.036 7.54-1.527a4.218 4.218 0 003.334-4.753zm-3.492-16.299l-.175.006c-3.003.187-5.793.555-8.37 1.103a39.792 39.792 0 00-4.921 1.378 5.96 5.96 0 00-3.855 6.863 3.32 3.32 0 004.427 2.413 43.435 43.435 0 015.596-1.71l1.57-.348a42.963 42.963 0 005.033-1.475 5.587 5.587 0 003.683-5.252 2.978 2.978 0 00-2.988-2.978zm-1.65-12.614c-3.202.04-6.238.39-9.11 1.054-2.388.551-4.754 1.421-7.1 2.612a6.926 6.926 0 00-3.614 7.734 2.758 2.758 0 003.996 1.808c2.959-1.594 6.011-2.754 9.155-3.48l4.18-.974 2.484-.589a4.72 4.72 0 003.62-4.367l.005-.216-.008-.249a3.573 3.573 0 00-3.608-3.333z" id="Shape" fill="#383838" fill-rule="nonzero"/><path d="M96.082 63.128c7.094 1.025 18.27 7.646 18.27 23.313 0 8.683 11.215 14.086 33.648 16.21V144h-16.043c-18.483-6.079-37.613-15.127-57.388-27.146l18.39-13.316c-4.064-3.756-4.064-12.269 0-25.538-11.645-.351-16.552-3.473-14.721-9.366 1.459-5.922 8.134-5.8 17.844-5.506z" id="Combined-Shape" fill="#FBD2A5"/><path d="M75.348 115.572c21.294 12.942 41.821 22.417 61.58 28.429H127.3c-16.905-5.935-34.33-14.309-52.276-25.118l-1.234-.747 1.558-2.564zm19.87-53.97l.909.026.17.015c10.403 1.504 19.366 10.52 19.551 24.36l.003.438c0 7.59 10.633 12.646 32.148 14.701v3.017c-23.066-2.162-34.864-7.795-35.143-17.369l-.005-.349c0-12.366-7.695-20.33-16.674-21.781l-.236-.037-1.71-.044c-10.483-.231-13.519.586-14.521 4.346l-.04.154c-1.404 4.52 2.427 7.028 12.907 7.407l2.393.074-.576 1.88c-3.851 12.57-3.907 20.537-.566 23.853l.15.143-2.036 2.203c-4.384-4.05-4.625-12.323-1.072-24.856l.106-.373-.103-.006c-10.947-.703-16.06-4.322-14.163-10.89l.071-.239c.842-3.415 3.182-5.36 6.963-6.19l.378-.08c2.528-.508 5.203-.569 11.096-.403z" id="Combined-Shape" fill="#383838"/><g id="Group-3" transform="translate(18 101)"><path d="M11.5 25h2.556C20.019 20.967 23 16.8 23 12.5c0-4.11-2.981-8.276-8.944-12.5H11.5C5.149 0 0 5.596 0 12.5S5.149 25 11.5 25z" id="Oval" fill="#FFE3AC"/><ellipse id="Oval" fill="#FFF4E0" cx="13.5" cy="12.5" rx="11.5" ry="12.5"/><path id="Path-6" fill="#FFAF10" d="M14 6l-5 6.052h2.803V18h4.285v-5.948H19z"/></g><g id="Group-3-Copy" transform="matrix(-1 0 0 1 22 0)"><path d="M10 25h2.222C17.407 20.967 20 16.8 20 12.5c0-4.11-2.593-8.276-7.778-12.5H10C4.477 0 0 5.596 0 12.5S4.477 25 10 25z" id="Oval" fill="#FFD78A"/><ellipse id="Oval" fill="#FFF4E0" cx="12" cy="12.5" rx="10" ry="12.5"/><path id="Path-6" fill="#FFAF10" d="M12.5 6L8 12.052h2.523V18h3.856v-5.948H17z"/></g><g id="Group-3-Copy-2" transform="matrix(-1 0 0 1 122 25)"><path d="M7.5 20h1.667C13.056 16.774 15 13.44 15 10c0-3.287-1.944-6.62-5.833-10H7.5C3.358 0 0 4.477 0 10s3.358 10 7.5 10z" id="Oval" fill="#FFE3AC"/><ellipse id="Oval" fill="#FFF4E0" cx="9.5" cy="10" rx="7.5" ry="10"/><path id="Path-6" fill="#FFAF10" d="M10 5l-3 5.043h1.682V15h2.57v-4.957H13z"/></g></g></g></g></g></g></svg>